<?xml version="1.0" standalone="no"?><!DOCTYPE svg PUBLIC "-//W3C//DTD SVG 1.1//EN" "http://www.w3.org/Graphics/SVG/1.1/DTD/svg11.dtd"><svg t="1751012997753" class="icon" viewBox="0 0 1091 1024" version="1.1" xmlns="http://www.w3.org/2000/svg" p-id="22056" xmlns:xlink="http://www.w3.org/1999/xlink" width="213.0859375" height="200"><path d="M409.538349 0.727777h68.165921v68.165921h-68.165921zM273.19899 68.892194h68.16592v68.165921h-68.16592zM136.880681 205.227043h68.165921v68.16592H136.880681z" fill="#231815" p-id="22057"></path><path d="M205.039084 205.227043h68.16592v68.16592h-68.16592z" fill="#E83A3A" p-id="22058"></path><path d="M0.539818 409.726308h68.165921v68.165921H0.539818z" fill="#231815" p-id="22059"></path><path d="M68.71025 409.726308h68.16592v68.165921H68.71025zM136.880681 409.726308h68.165921v68.165921H136.880681z" fill="#FFFFFF" p-id="22060"></path><path d="M205.039084 409.726308h68.16592v68.165921h-68.16592z" fill="#FFFFFF" p-id="22061"></path><path d="M0.539818 546.05815h68.165921v68.16592H0.539818z" fill="#231815" p-id="22062"></path><path d="M68.71025 546.05815h68.16592v68.16592H68.71025z" fill="#FFFFFF" p-id="22063"></path><path d="M136.880681 546.05815h68.165921v68.16592H136.880681z" fill="#E83A3A" p-id="22064"></path><path d="M205.039084 546.05815h68.16592v68.16592h-68.16592z" fill="#E83A3A" p-id="22065"></path><path d="M1023.036147 546.05815h68.165921v68.16592h-68.165921z" fill="#231815" p-id="22066"></path><path d="M954.865715 546.05815h68.165921v68.16592h-68.165921z" fill="#E83A3A" p-id="22067"></path><path d="M886.696787 546.05815h68.165921v68.16592h-68.165921z" fill="#FFFFFF" p-id="22068"></path><path d="M818.536881 546.05815h68.165921v68.16592h-68.165921z" fill="#FFFFFF" p-id="22069"></path><path d="M954.865715 409.726308h68.165921v68.165921h-68.165921z" fill="#231815" p-id="22070"></path><path d="M886.696787 409.726308h68.165921v68.165921h-68.165921z" fill="#FFFFFF" p-id="22071"></path><path d="M818.536881 409.726308h68.165921v68.165921h-68.165921z" fill="#FFFFFF" p-id="22072"></path><path d="M886.696787 273.394467h68.165921v68.165921h-68.165921z" fill="#231815" p-id="22073"></path><path d="M818.536881 273.394467h68.165921v68.165921h-68.165921zM273.19899 137.059618h68.16592v68.165921h-68.16592zM273.19899 205.227043h68.16592v68.16592h-68.16592zM273.19899 273.394467h68.16592v68.165921h-68.16592z" fill="#E83A3A" p-id="22074"></path><path d="M273.19899 341.558884h68.16592v68.165921h-68.16592zM273.19899 409.726308h68.16592v68.165921h-68.16592z" fill="#E83A3A" p-id="22075"></path><path d="M273.19899 477.890725h68.16592v68.165921h-68.16592zM273.19899 546.05815h68.16592v68.16592h-68.16592z" fill="#E83A3A" p-id="22076"></path><path d="M273.19899 614.225574h68.16592v68.165921h-68.16592zM273.19899 682.392999h68.16592v68.16592h-68.16592z" fill="#231815" p-id="22077"></path><path d="M273.19899 750.557416h68.16592v68.16592h-68.16592z" fill="#FFFFFF" p-id="22078"></path><path d="M273.19899 818.72484h68.16592v68.165921h-68.16592z" fill="#FFDFD2" p-id="22079"></path><path d="M273.19899 886.889257h68.16592v68.165921h-68.16592zM136.880681 273.394467h68.165921v68.165921H136.880681z" fill="#231815" p-id="22080"></path><path d="M205.039084 273.394467h68.16592v68.165921h-68.16592z" fill="#E83A3A" p-id="22081"></path><path d="M0.539818 477.890725h68.165921v68.165921H0.539818z" fill="#231815" p-id="22082"></path><path d="M68.71025 477.890725h68.16592v68.165921H68.71025zM136.880681 477.890725h68.165921v68.165921H136.880681z" fill="#FFFFFF" p-id="22083"></path><path d="M205.039084 477.890725h68.16592v68.165921h-68.16592z" fill="#E83A3A" p-id="22084"></path><path d="M1023.036147 477.890725h68.165921v68.165921h-68.165921z" fill="#231815" p-id="22085"></path><path d="M954.865715 477.890725h68.165921v68.165921h-68.165921z" fill="#E83A3A" p-id="22086"></path><path d="M886.696787 477.890725h68.165921v68.165921h-68.165921z" fill="#FFFFFF" p-id="22087"></path><path d="M818.536881 477.890725h68.165921v68.165921h-68.165921z" fill="#FFFFFF" p-id="22088"></path><path d="M954.865715 341.558884h68.165921v68.165921h-68.165921z" fill="#231815" p-id="22089"></path><path d="M886.696787 341.558884h68.165921v68.165921h-68.165921z" fill="#E83A3A" p-id="22090"></path><path d="M818.536881 341.558884h68.165921v68.165921h-68.165921z" fill="#FFFFFF" p-id="22091"></path><path d="M886.696787 205.227043h68.165921v68.16592h-68.165921z" fill="#231815" p-id="22092"></path><path d="M818.536881 205.227043h68.165921v68.16592h-68.165921z" fill="#E83A3A" p-id="22093"></path><path d="M0.539818 614.225574h68.165921v68.165921H0.539818z" fill="#231815" p-id="22094"></path><path d="M68.71025 614.225574h68.16592v68.165921H68.71025zM136.880681 614.225574h68.165921v68.165921H136.880681z" fill="#E83A3A" p-id="22095"></path><path d="M205.039084 614.225574h68.16592v68.165921h-68.16592z" fill="#E83A3A" p-id="22096"></path><path d="M1023.036147 614.225574h68.165921v68.165921h-68.165921z" fill="#231815" p-id="22097"></path><path d="M954.865715 614.225574h68.165921v68.165921h-68.165921zM886.696787 614.225574h68.165921v68.165921h-68.165921z" fill="#E83A3A" p-id="22098"></path><path d="M818.536881 614.225574h68.165921v68.165921h-68.165921z" fill="#FFFFFF" p-id="22099"></path><path d="M205.039084 818.72484h68.16592v68.165921h-68.16592zM818.536881 818.72484h68.165921v68.165921h-68.165921zM0.539818 682.392999h68.165921v68.16592H0.539818z" fill="#231815" p-id="22100"></path><path d="M68.71025 682.392999h68.16592v68.16592H68.71025z" fill="#E83A3A" p-id="22101"></path><path d="M136.880681 682.392999h68.165921v68.16592H136.880681z" fill="#231815" p-id="22102"></path><path d="M205.039084 682.392999h68.16592v68.16592h-68.16592zM1023.036147 682.392999h68.165921v68.16592h-68.165921z" fill="#231815" p-id="22103"></path><path d="M954.865715 682.392999h68.165921v68.16592h-68.165921z" fill="#E83A3A" p-id="22104"></path><path d="M886.696787 682.392999h68.165921v68.16592h-68.165921z" fill="#231815" p-id="22105"></path><path d="M818.536881 682.392999h68.165921v68.16592h-68.165921zM205.039084 886.889257h68.16592v68.165921h-68.16592zM818.536881 886.889257h68.165921v68.165921h-68.165921zM273.19899 955.059689h68.16592v68.16592h-68.16592zM477.708781 955.059689h68.165921v68.16592h-68.165921zM68.71025 750.557416h68.16592v68.16592H68.71025z" fill="#231815" p-id="22106"></path><path d="M886.696787 750.557416h68.165921v68.16592h-68.165921z" fill="#231815" p-id="22107"></path><path d="M818.536881 750.557416h68.165921v68.16592h-68.165921zM341.367918 955.059689h68.16592v68.16592h-68.16592zM545.867184 955.059689h68.16592v68.16592h-68.16592zM682.208047 955.059689h68.165921v68.16592h-68.165921zM136.880681 750.557416h68.165921v68.16592H136.880681z" fill="#231815" p-id="22108"></path><path d="M205.039084 750.557416h68.16592v68.16592h-68.16592z" fill="#FFFFFF" p-id="22109"></path><path d="M954.865715 750.557416h68.165921v68.16592h-68.165921zM409.538349 955.059689h68.165921v68.16592h-68.165921zM614.037615 955.059689h68.165921v68.16592h-68.165921zM750.378479 955.059689h68.16592v68.16592h-68.16592zM68.71025 341.558884h68.16592v68.165921H68.71025z" fill="#231815" p-id="22110"></path><path d="M136.880681 341.558884h68.165921v68.165921H136.880681z" fill="#FFFFFF" p-id="22111"></path><path d="M205.039084 341.558884h68.16592v68.165921h-68.16592z" fill="#FFFFFF" p-id="22112"></path><path d="M205.039084 137.059618h68.16592v68.165921h-68.16592z" fill="#231815" p-id="22113"></path><path d="M545.867184 68.892194h68.16592v68.165921h-68.16592zM545.867184 137.059618h68.16592v68.165921h-68.16592z" fill="#E83A3A" p-id="22114"></path><path d="M545.867184 205.227043h68.16592v68.16592h-68.16592zM545.867184 273.394467h68.16592v68.165921h-68.16592z" fill="#FFFFFF" p-id="22115"></path><path d="M545.867184 341.558884h68.16592v68.165921h-68.16592zM545.867184 409.726308h68.16592v68.165921h-68.16592z" fill="#E83A3A" p-id="22116"></path><path d="M545.867184 477.890725h68.16592v68.165921h-68.16592zM545.867184 546.05815h68.16592v68.16592h-68.16592z" fill="#E83A3A" p-id="22117"></path><path d="M545.867184 614.225574h68.16592v68.165921h-68.16592z" fill="#231815" p-id="22118"></path><path d="M545.867184 682.392999h68.16592v68.16592h-68.16592z" fill="#FFDFD2" p-id="22119"></path><path d="M545.867184 750.557416h68.16592v68.16592h-68.16592zM545.867184 818.72484h68.16592v68.165921h-68.16592z" fill="#FFFFFF" p-id="22120"></path><path d="M545.867184 886.889257h68.16592v68.165921h-68.16592z" fill="#FFDFD2" p-id="22121"></path><path d="M477.708781 0.727777h68.165921v68.165921h-68.165921zM341.367918 68.892194h68.16592v68.165921h-68.16592z" fill="#231815" p-id="22122"></path><path d="M341.367918 137.059618h68.16592v68.165921h-68.16592z" fill="#E83A3A" p-id="22123"></path><path d="M341.367918 205.227043h68.16592v68.16592h-68.16592zM341.367918 273.394467h68.16592v68.165921h-68.16592z" fill="#FFFFFF" p-id="22124"></path><path d="M341.367918 341.558884h68.16592v68.165921h-68.16592zM341.367918 409.726308h68.16592v68.165921h-68.16592z" fill="#E83A3A" p-id="22125"></path><path d="M341.367918 477.890725h68.16592v68.165921h-68.16592zM341.367918 546.05815h68.16592v68.16592h-68.16592z" fill="#E83A3A" p-id="22126"></path><path d="M341.367918 614.225574h68.16592v68.165921h-68.16592z" fill="#231815" p-id="22127"></path><path d="M341.367918 682.392999h68.16592v68.16592h-68.16592z" fill="#FFDFD2" p-id="22128"></path><path d="M341.367918 750.557416h68.16592v68.16592h-68.16592zM341.367918 818.72484h68.16592v68.165921h-68.16592z" fill="#FFFFFF" p-id="22129"></path><path d="M341.367918 886.889257h68.16592v68.165921h-68.16592z" fill="#FFDFD2" p-id="22130"></path><path d="M614.037615 68.892194h68.165921v68.165921h-68.165921zM614.037615 137.059618h68.165921v68.165921h-68.165921zM614.037615 205.227043h68.165921v68.16592h-68.165921zM614.037615 273.394467h68.165921v68.165921h-68.165921z" fill="#E83A3A" p-id="22131"></path><path d="M614.037615 341.558884h68.165921v68.165921h-68.165921z" fill="#E83A3A" p-id="22132"></path><path d="M614.037615 409.726308h68.165921v68.165921h-68.165921z" fill="#FFFFFF" p-id="22133"></path><path d="M614.037615 477.890725h68.165921v68.165921h-68.165921zM614.037615 546.05815h68.165921v68.16592h-68.165921z" fill="#FFFFFF" p-id="22134"></path><path d="M614.037615 614.225574h68.165921v68.165921h-68.165921zM614.037615 682.392999h68.165921v68.16592h-68.165921z" fill="#231815" p-id="22135"></path><path d="M614.037615 750.557416h68.165921v68.16592h-68.165921z" fill="#231815" p-id="22136"></path><path d="M614.037615 818.72484h68.165921v68.165921h-68.165921z" fill="#FFFFFF" p-id="22137"></path><path d="M614.037615 886.889257h68.165921v68.165921h-68.165921z" fill="#FFDFD2" p-id="22138"></path><path d="M545.867184 0.727777h68.16592v68.165921h-68.16592z" fill="#231815" p-id="22139"></path><path d="M409.538349 68.892194h68.165921v68.165921h-68.165921z" fill="#E83A3A" p-id="22140"></path><path d="M409.538349 137.059618h68.165921v68.165921h-68.165921zM409.538349 205.227043h68.165921v68.16592h-68.165921zM409.538349 273.394467h68.165921v68.165921h-68.165921z" fill="#FFFFFF" p-id="22141"></path><path d="M409.538349 341.558884h68.165921v68.165921h-68.165921z" fill="#FFFFFF" p-id="22142"></path><path d="M409.538349 409.726308h68.165921v68.165921h-68.165921z" fill="#E83A3A" p-id="22143"></path><path d="M409.538349 477.890725h68.165921v68.165921h-68.165921zM409.538349 546.05815h68.165921v68.16592h-68.165921z" fill="#E83A3A" p-id="22144"></path><path d="M409.538349 614.225574h68.165921v68.165921h-68.165921zM409.538349 682.392999h68.165921v68.16592h-68.165921z" fill="#231815" p-id="22145"></path><path d="M409.538349 750.557416h68.165921v68.16592h-68.165921z" fill="#231815" p-id="22146"></path><path d="M409.538349 818.72484h68.165921v68.165921h-68.165921z" fill="#FFFFFF" p-id="22147"></path><path d="M409.538349 886.889257h68.165921v68.165921h-68.165921z" fill="#FFDFD2" p-id="22148"></path><path d="M682.208047 68.892194h68.165921v68.165921h-68.165921z" fill="#231815" p-id="22149"></path><path d="M682.208047 137.059618h68.165921v68.165921h-68.165921z" fill="#FFFFFF" p-id="22150"></path><path d="M682.208047 205.227043h68.165921v68.16592h-68.165921zM682.208047 273.394467h68.165921v68.165921h-68.165921z" fill="#E83A3A" p-id="22151"></path><path d="M682.208047 341.558884h68.165921v68.165921h-68.165921zM682.208047 409.726308h68.165921v68.165921h-68.165921z" fill="#FFFFFF" p-id="22152"></path><path d="M682.208047 477.890725h68.165921v68.165921h-68.165921zM682.208047 546.05815h68.165921v68.16592h-68.165921z" fill="#FFFFFF" p-id="22153"></path><path d="M682.208047 614.225574h68.165921v68.165921h-68.165921z" fill="#231815" p-id="22154"></path><path d="M682.208047 682.392999h68.165921v68.16592h-68.165921z" fill="#FFDFD2" p-id="22155"></path><path d="M682.208047 750.557416h68.165921v68.16592h-68.165921zM682.208047 818.72484h68.165921v68.165921h-68.165921z" fill="#FFFFFF" p-id="22156"></path><path d="M682.208047 886.889257h68.165921v68.165921h-68.165921z" fill="#FFDFD2" p-id="22157"></path><path d="M614.037615 0.727777h68.165921v68.165921h-68.165921z" fill="#231815" p-id="22158"></path><path d="M477.708781 68.892194h68.165921v68.165921h-68.165921z" fill="#E83A3A" p-id="22159"></path><path d="M477.708781 137.059618h68.165921v68.165921h-68.165921zM477.708781 205.227043h68.165921v68.16592h-68.165921zM477.708781 273.394467h68.165921v68.165921h-68.165921z" fill="#FFFFFF" p-id="22160"></path><path d="M477.708781 341.558884h68.165921v68.165921h-68.165921z" fill="#FFFFFF" p-id="22161"></path><path d="M477.708781 409.726308h68.165921v68.165921h-68.165921z" fill="#E83A3A" p-id="22162"></path><path d="M477.708781 477.890725h68.165921v68.165921h-68.165921zM477.708781 546.05815h68.165921v68.16592h-68.165921z" fill="#E83A3A" p-id="22163"></path><path d="M477.708781 614.225574h68.165921v68.165921h-68.165921z" fill="#231815" p-id="22164"></path><path d="M477.708781 682.392999h68.165921v68.16592h-68.165921z" fill="#FFDFD2" p-id="22165"></path><path d="M477.708781 750.557416h68.165921v68.16592h-68.165921zM477.708781 818.72484h68.165921v68.165921h-68.165921z" fill="#FFFFFF" p-id="22166"></path><path d="M477.708781 886.889257h68.165921v68.165921h-68.165921z" fill="#FFDFD2" p-id="22167"></path><path d="M750.378479 68.892194h68.16592v68.165921h-68.16592z" fill="#231815" p-id="22168"></path><path d="M750.378479 137.059618h68.16592v68.165921h-68.16592z" fill="#FFFFFF" p-id="22169"></path><path d="M750.378479 205.227043h68.16592v68.16592h-68.16592zM750.378479 273.394467h68.16592v68.165921h-68.16592z" fill="#E83A3A" p-id="22170"></path><path d="M750.378479 341.558884h68.16592v68.165921h-68.16592zM750.378479 409.726308h68.16592v68.165921h-68.16592z" fill="#FFFFFF" p-id="22171"></path><path d="M750.378479 477.890725h68.16592v68.165921h-68.16592zM750.378479 546.05815h68.16592v68.16592h-68.16592z" fill="#FFFFFF" p-id="22172"></path><path d="M750.378479 614.225574h68.16592v68.165921h-68.16592zM750.378479 682.392999h68.16592v68.16592h-68.16592z" fill="#231815" p-id="22173"></path><path d="M750.378479 750.557416h68.16592v68.16592h-68.16592z" fill="#FFFFFF" p-id="22174"></path><path d="M750.378479 818.72484h68.16592v68.165921h-68.16592z" fill="#FFDFD2" p-id="22175"></path><path d="M750.378479 886.889257h68.16592v68.165921h-68.16592zM818.536881 137.059618h68.165921v68.165921h-68.165921z" fill="#231815" p-id="22176"></path></svg>