<?xml version="1.0" standalone="no"?><!DOCTYPE svg PUBLIC "-//W3C//DTD SVG 1.1//EN" "http://www.w3.org/Graphics/SVG/1.1/DTD/svg11.dtd"><svg t="1747217552341" class="icon" viewBox="0 0 1024 1024" version="1.1" xmlns="http://www.w3.org/2000/svg" p-id="1874" xmlns:xlink="http://www.w3.org/1999/xlink" width="200" height="200"><path d="M978.5856 253.2352c-1.6896-2.816-3.4816-5.5296-5.3248-8.2944-0.4096-0.5632-0.768-1.1264-1.1776-1.6896-1.6896-2.4576-3.4816-4.9152-5.3248-7.3216-0.6144-0.8192-1.2288-1.5872-1.8432-2.4064-1.7408-2.2016-3.4816-4.4032-5.2736-6.5536-0.768-0.9216-1.5872-1.8944-2.4064-2.816-1.792-2.048-3.584-4.096-5.4272-6.0928-0.8704-0.9216-1.7408-1.792-2.6112-2.7136-1.4336-1.4848-2.7648-2.9696-4.2496-4.4544-0.5632-0.512-1.1264-1.024-1.6896-1.5872l-2.9184-2.7648a245.8624 245.8624 0 0 0-32.256-25.6c-1.6896-1.1264-3.328-2.304-5.0688-3.3792-1.4336-0.9216-2.9184-1.7408-4.352-2.6112-2.3552-1.4336-4.7104-2.8672-7.0656-4.1984-1.2288-0.6656-2.4576-1.3312-3.6864-1.9456-2.6624-1.4336-5.376-2.8672-8.0384-4.1984-1.0752-0.5632-2.2016-1.024-3.328-1.5872-2.8672-1.3824-5.7344-2.7136-8.6528-3.9424-1.024-0.4608-2.0992-0.8704-3.1232-1.28-2.9696-1.2288-5.9904-2.4064-9.0112-3.5328l-3.072-1.0752c-3.0208-1.0752-6.0928-2.0992-9.1648-3.0208l-3.1232-0.9216c-3.0208-0.8704-6.0928-1.7408-9.1648-2.4576l-3.2256-0.768c-3.0208-0.7168-6.0416-1.3312-9.0112-1.8944l-3.3792-0.6144c-2.9696-0.512-5.888-0.9216-8.8576-1.3312l-3.5328-0.4608c-2.9184-0.3072-5.7856-0.5632-8.6528-0.768-1.2288-0.1024-2.4064-0.2048-3.6352-0.256-2.8672-0.1536-5.6832-0.2048-8.5504-0.2048-1.2288 0-2.4064-0.0512-3.6352-0.0512-2.9696 0.0512-5.888 0.2048-8.8064 0.3584-1.024 0.0512-2.0992 0.0512-3.1744 0.1536-3.9424 0.3072-7.8336 0.7168-11.6736 1.28-63.232 9.3696-153.4464 56.3712-220.2624 95.6416-5.888-0.7168-11.9808-1.3312-18.2784-1.6896a187.5456 187.5456 0 0 0-30.5152 0.7168C419.84 198.0416 330.3424 151.552 267.4688 142.2336c-3.7888-0.5632-7.6288-0.9728-11.52-1.28-1.6896-0.1536-3.3792-0.1536-5.0176-0.256-2.2528-0.1024-4.4544-0.256-6.7584-0.256-1.8432 0-3.7376 0.0512-5.5808 0.0512-2.0992 0.0512-4.2496 0.0512-6.3488 0.1536-1.8944 0.1024-3.7888 0.256-5.632 0.4096-2.1504 0.1536-4.3008 0.3584-6.5024 0.5632-1.8432 0.2048-3.6864 0.4608-5.5296 0.7168-2.2528 0.3072-4.5056 0.6144-6.7584 1.024-1.7408 0.3072-3.5328 0.6656-5.2736 0.9728-2.3552 0.4608-4.7104 0.9216-7.0144 1.4848l-5.0688 1.2288c-2.4064 0.6144-4.864 1.28-7.2704 1.9968-1.5872 0.4608-3.2256 0.9216-4.8128 1.4336-2.5088 0.768-4.9664 1.5872-7.424 2.4576-1.536 0.5632-3.072 1.0752-4.608 1.6384-2.5088 0.9216-4.9664 1.8944-7.424 2.9184-1.4848 0.6144-3.0208 1.2288-4.5056 1.8432-2.4576 1.0752-4.864 2.2016-7.3216 3.328-1.4848 0.7168-3.0208 1.3824-4.5056 2.1504-2.304 1.1264-4.608 2.3552-6.8608 3.584-1.5872 0.8704-3.1744 1.6896-4.7616 2.56-1.9968 1.1264-3.9936 2.3552-5.9904 3.5328-1.792 1.0752-3.6352 2.0992-5.376 3.2256-1.28 0.8192-2.5088 1.6896-3.7888 2.5088a249.91744 249.91744 0 0 0-33.6384 26.5728c-0.8704 0.8192-1.792 1.6384-2.6624 2.4576-0.5632 0.5632-1.1776 1.0752-1.7408 1.6384-1.4848 1.4848-2.9184 3.0208-4.352 4.5568-0.8192 0.8192-1.6384 1.6896-2.4064 2.5088-1.8944 2.048-3.7376 4.1472-5.5296 6.2464-0.768 0.8704-1.536 1.792-2.304 2.6624-1.8432 2.2016-3.6352 4.4544-5.376 6.656-0.6144 0.768-1.1776 1.536-1.792 2.304-1.8432 2.4576-3.6352 4.9152-5.376 7.424-0.3584 0.5632-0.768 1.0752-1.1264 1.6384-1.8944 2.7648-3.6864 5.5296-5.376 8.3456l-0.4608 0.768c-23.7568 39.1168-33.28 83.456-26.9312 128.8704 15.4624 110.592 82.4832 176.7424 111.1552 205.0048 3.2256 3.1744 5.888 5.7856 7.8336 7.8848l1.792 1.9456c7.68 8.2432 28.0576 30.0544 27.0848 39.4752-0.1024 0.9728-2.0992 2.4576-2.7136 2.8672-9.984 7.0144-26.0608 7.4752-42.4448 0.9728l-0.6144-0.3072a79.0016 79.0016 0 0 1-17.664-10.0864c-0.3584-0.3072-0.768-0.5632-1.1264-0.8704-0.9728-0.768-1.8944-1.536-2.8672-2.3552-0.6656-0.5632-1.28-1.0752-1.8944-1.6384a50.6368 50.6368 0 0 1-2.4576-2.304c-0.768-0.7168-1.4848-1.4848-2.2528-2.2528-0.6656-0.7168-1.3824-1.4336-2.048-2.1504-1.1264-1.2288-2.2016-2.56-3.328-3.8912l-0.768-0.9216a22.20544 22.20544 0 0 0-28.672-5.5296c-7.2704 4.1984-11.3664 11.776-11.2128 19.6608 0.0512 2.6624 0.5632 5.3248 1.5872 7.936 8.2432 20.8384 17.664 39.2704 28.1088 55.3472l1.2288 1.9968c0.6144 0.8704 1.2288 1.6896 1.792 2.56 32.5632 47.872 74.5984 73.0112 122.368 73.0112 17.152 0 35.0208-3.2256 53.4016-9.7792 2.8672-1.024 5.5808-2.1504 8.2944-3.328 24.7808 57.5488 99.8912 176.0768 253.952 176.0768 151.9104 0 224.2048-123.136 247.9616-175.1552 2.048 0.8704 4.096 1.6384 6.2464 2.4064 18.432 6.5536 36.3008 9.7792 53.4016 9.7792 49.9712 0 93.6448-27.5456 126.7712-79.7696 9.8816-15.5648 18.8416-33.28 26.7264-53.1968 0.512-1.28 0.9216-2.6112 1.1776-3.9424 1.8432-9.2672-2.3552-18.7392-10.8544-23.6544a22.14912 22.14912 0 0 0-28.672 5.5808c-0.2048 0.256-0.4096 0.4608-0.6144 0.7168-1.1264 1.4336-2.304 2.7648-3.4816 4.096l-1.9968 2.1504c-0.768 0.768-1.4848 1.536-2.2528 2.304-0.8192 0.768-1.5872 1.536-2.4576 2.2528-0.6144 0.5632-1.28 1.1264-1.8944 1.6384-0.9216 0.8192-1.8944 1.5872-2.8672 2.3552-0.3584 0.3072-0.768 0.5632-1.1264 0.8704a79.0016 79.0016 0 0 1-17.664 10.0864l-0.6144 0.3072c-16.384 6.5024-32.4608 6.0416-42.4448-0.9728-0.6144-0.4096-2.56-1.8944-2.7136-2.8672-0.9728-9.4208 19.4048-31.2832 27.0848-39.4752l1.792-1.9456c1.9456-2.0992 4.608-4.7104 7.8336-7.8848 28.6208-28.2624 95.6928-94.4128 111.1552-205.0048 6.3488-45.4144-3.1744-89.7536-26.88-128.8192 0.0512-0.256-0.1024-0.512-0.3072-0.8192z m-280.3712-52.1728l1.2288-0.4608c1.8944-0.7168 3.7376-1.3824 5.5808-2.0992 1.4848-0.5632 3.0208-1.1776 4.5056-1.6896 0.6656-0.256 1.28-0.4608 1.9456-0.6656 18.944-6.7584 35.6352-11.3152 49.8176-13.4144 3.7888-0.5632 7.68-0.9216 11.6224-1.1776 0.512-0.0512 0.9728-0.0512 1.4848-0.0512 28.4672-1.28 59.648 6.0928 88.4224 20.48-7.8336-0.9216-14.7456-1.3824-20.6336-1.1264-56.6784 2.8672-128.6144 28.416-214.1184 76.032-2.2528-2.2528-4.608-4.352-7.1168-6.4512-0.512-0.4096-0.9728-0.8192-1.4848-1.2288-5.2224-4.1984-10.9056-7.9872-17.152-11.4176-0.2048-0.1024-0.3584-0.2048-0.5632-0.3072-3.2256-1.7408-6.5536-3.3792-10.0352-4.9152 40.192-22.272 75.9296-39.5776 106.496-51.5072z m-90.7776 225.3824c-7.7312 5.6832-14.1312 12.6976-19.456 20.7872-0.256-0.5632-0.5632-1.2288-0.8192-1.7408-5.12-10.0864-17.4592-14.1312-27.5456-9.0112-10.0864 5.12-14.1312 17.4592-9.0112 27.5456 8.0384 15.8208 21.7088 71.8336 33.6896 128.512-0.0512 0.5632-0.1536 1.0752-0.1536 1.5872 0 3.5328 0.9728 6.7584 2.5088 9.6768 7.9872 38.5024 15.0016 76.0832 18.6368 100.3008 1.9968 13.312 1.28 26.5728-1.8944 39.0144-0.8704 1.8944-1.4848 3.84-1.7408 5.888-3.7376 11.4176-9.472 22.0672-17.3568 31.232-12.1344 14.1312-34.4064 30.9248-71.5776 30.9248-26.9824 0-52.9408-11.776-71.2704-32.3072-17.1008-19.1488-24.9856-43.0592-22.272-67.2768 4.608-32.1536 12.288-70.6048 20.48-107.7248 1.5872-2.9184 2.56-6.144 2.56-9.6768 0-0.4096-0.1024-0.768-0.1024-1.1776 15.7184-69.8368 32.4608-131.8912 32.768-132.864a20.48 20.48 0 0 0-38.0928-14.5408c-7.1168-11.1104-16.0256-19.8656-26.7264-26.112-17.5104-10.2912-36.3008-11.6224-51.712-10.0864 3.328-13.7728 8.6528-26.7776 16.0768-38.912 3.5328 11.9808 9.6256 21.8624 18.3808 29.3888 14.4896 12.4928 32.6656 15.8208 49.152 15.8208 11.9808 0 23.0912-1.792 31.232-3.072 2.5088-0.4096 5.632-0.8704 6.6048-0.9728 3.7376-0.1536 7.9872-0.512 12.6464-0.9216 13.9264-1.1776 31.2832-2.6112 53.1968 0.1024 2.8672 0.3584 5.8368 0.768 8.8576 1.1776 29.0304 4.096 82.688 11.52 97.792-40.8576 7.2192 12.032 12.4416 24.832 15.6672 38.4512-17.8688-0.5632-40.9088 2.4064-60.5184 16.8448z m64 31.8464c-6.0928 74.1888-32.6656 100.6592-50.432 110.08-3.5328-16.2304-7.168-32.3072-10.8544-47.4112 0.6144-1.9456 1.0752-3.9424 1.1264-6.0928 0.256-21.4016 4.6592-37.4272 12.9536-48.0768 6.6048 7.3216 16.1792 13.1072 28.928 9.3184 10.24-3.0208 15.616-10.0864 18.2784-17.8176zM417.024 521.216c-3.584 14.5408-7.3728 30.464-11.264 47.1552-17.6128-9.4208-44.1344-35.6864-50.5344-108.3904 2.8672 7.0144 8.0896 13.3632 17.5616 16.1792 12.7488 3.7888 22.3232-2.048 28.928-9.3696 9.1648 13.6704 12.8 33.3824 14.1824 49.5616 0.1536 1.6896 0.5632 3.328 1.1264 4.864z m46.4896-238.2848c1.3312-0.4096 2.6112-0.768 3.8912-1.1264 0.512-0.1536 0.9728-0.256 1.4848-0.4096 0.8704-0.2048 1.6896-0.4096 2.5088-0.6144 1.024-0.256 2.048-0.4608 3.072-0.7168 0.4096-0.1024 0.768-0.1536 1.1776-0.256 10.24-2.0992 20.6336-3.1232 30.2592-3.1232 2.816 0 5.5808 0.1024 8.2432 0.256 7.68 0.4608 14.9504 1.28 21.8112 2.304 0.0512 0 0.1024 0.0512 0.1536 0.0512 3.8912 0.6144 7.6288 1.28 11.264 2.048l1.5872 0.3072c3.4816 0.768 6.7584 1.6384 9.984 2.56l1.5872 0.4608c3.1744 0.9728 6.2464 1.9968 9.1648 3.1232l1.0752 0.4608c2.7648 1.0752 5.376 2.2528 7.8336 3.4816 0.3072 0.1536 0.6656 0.3072 1.024 0.4608 2.4064 1.2288 4.6592 2.5088 6.8096 3.8912 0.7168 0.4096 1.3824 0.8704 2.048 1.3312 1.8944 1.28 3.6864 2.56 5.376 3.9424 0.768 0.6144 1.536 1.28 2.2528 1.9456 1.2288 1.0752 2.4064 2.2528 3.5328 3.3792 0.9216 0.9728 1.792 1.9456 2.6112 2.9184 0.9216 1.0752 1.792 2.2016 2.6112 3.328 2.3552 3.2768 4.352 6.7072 5.8368 10.3936 0.0512 0.1024 0.1024 0.1536 0.1536 0.256 6.0416 14.848 3.8912 28.9792 2.4576 35.072-3.9936 15.6672-14.3872 18.176-53.1456 12.8-3.2256-0.4608-6.4-0.8704-9.4208-1.28-26.1632-3.2768-46.7456-1.536-61.696-0.3072-4.0448 0.3584-7.7312 0.6656-11.008 0.8192-3.2256 0.1536-6.7584 0.7168-11.264 1.4336-11.8784 1.8944-36.5568 5.8368-47.2064-3.3792-5.2736-4.5056-7.8336-13.2096-7.7312-25.8048 0.0512-7.7312 1.3312-14.6432 3.6352-20.992 0.6656-1.8944 1.4848-3.6864 2.3552-5.4272 0-0.0512 0.0512-0.1024 0.0512-0.1536 0.8704-1.7408 1.8432-3.328 2.8672-4.9152 0.1024-0.1536 0.2048-0.3584 0.3072-0.512 10.1376-15.0528 27.2896-23.3984 42.1376-28.0064 0.1536 0.0512 0.256 0.0512 0.3072 0zM248.576 181.4528c0.512 0 0.9728 0.0512 1.4848 0.0512 3.9424 0.2048 7.8336 0.6144 11.6224 1.1776 31.1296 4.608 74.3424 20.7872 127.1808 47.4624 0.8192 0.4096 1.5872 0.8192 2.4576 1.2288 2.7648 1.3824 5.5808 2.8672 8.448 4.352 1.4336 0.7168 2.7648 1.4336 4.1984 2.1504l5.0176 2.6624c6.9632 3.6864 14.0288 7.4752 21.248 11.4688-0.2048 0.1024-0.3584 0.2048-0.5632 0.3072-2.8672 1.3824-5.632 2.8672-8.3968 4.4544-0.1024 0.0512-0.1536 0.1024-0.256 0.1536-2.7648 1.6384-5.4272 3.3792-8.0384 5.1712-0.8192 0.5632-1.5872 1.1776-2.3552 1.7408-1.8944 1.3824-3.7376 2.8672-5.5296 4.4032-0.768 0.6656-1.5872 1.3312-2.3552 2.048-0.4096 0.3584-0.8704 0.7168-1.28 1.0752-1.28 1.1776-2.3552 2.4576-3.5328 3.6352-0.768 0.768-1.536 1.4336-2.304 2.2528C309.8112 229.376 237.568 203.6736 180.736 200.8064h-1.024c-5.5296 0-12.1856 0.3072-19.5584 1.1776 28.7232-14.4384 59.9552-21.8112 88.4224-20.5312z m-91.7504 377.2928c-25.6512-25.344-85.8112-84.6336-99.328-181.504-0.8192-5.6832-1.2288-11.3664-1.3824-16.9984C78.2848 257.6896 142.3872 241.8688 179.2 241.7152c48.6912 2.6112 114.4832 26.2144 191.232 68.4544-6.7072 6.144-12.9024 12.544-18.432 19.3024-0.6144 0.1536-1.1776 0.256-1.792 0.4096-0.6656 0.1536-1.3312 0.3072-2.048 0.4096-1.024 0.2048-2.048 0.4096-3.1232 0.6144-0.768 0.1536-1.5872 0.3072-2.4064 0.4608-1.0752 0.2048-2.2016 0.3584-3.328 0.512-0.8704 0.1536-1.7408 0.3072-2.7136 0.4096-1.1776 0.1536-2.4576 0.3072-3.7376 0.4608-0.9728 0.1024-1.8432 0.256-2.8672 0.3584-2.0992 0.256-4.352 0.4608-6.6048 0.6144-1.2288 0.1024-2.56 0.1536-3.84 0.256-1.3312 0.1024-2.6112 0.2048-3.9936 0.256l-4.096 0.1536c-1.3312 0.0512-2.6624 0.1024-4.0448 0.1024h-8.7552c-1.536 0-3.1744-0.0512-4.7616-0.1024l-4.5056-0.1536c-1.6384-0.0512-3.328-0.1536-5.0176-0.256l-4.8128-0.3072c-1.7408-0.1536-3.4816-0.256-5.2736-0.4608-1.6896-0.1536-3.4304-0.3584-5.1712-0.512l-5.4272-0.6144c-1.8432-0.2048-3.7376-0.512-5.632-0.768-1.8432-0.256-3.6352-0.512-5.5296-0.8192-2.048-0.3072-4.1472-0.6656-6.2464-1.024-1.792-0.3072-3.584-0.6144-5.4272-0.9728-2.4064-0.4608-4.864-0.9728-7.3728-1.4848-1.6384-0.3584-3.2256-0.6144-4.864-0.9728-4.1472-0.9216-8.3968-1.8944-12.7488-2.9696-39.7312-12.032-98.6112 4.5056-129.024 27.648a20.5312 20.5312 0 0 0-6.0416 25.1904c2.048 4.1984 4.1984 8.2432 6.5024 12.1344 0.7168 1.28 1.536 2.4576 2.304 3.6864 1.5872 2.6112 3.2256 5.1712 4.9664 7.6288 0.9216 1.3312 1.8944 2.6112 2.8672 3.8912 1.7408 2.304 3.4816 4.5568 5.2736 6.7072 0.9728 1.1264 1.9456 2.2528 2.9696 3.3792 2.048 2.304 4.1472 4.5056 6.3488 6.656 0.8192 0.8192 1.6896 1.6384 2.5088 2.4576 2.7136 2.5088 5.4784 4.9152 8.3968 7.2192 0.4096 0.3072 0.768 0.6656 1.1776 0.9728 10.7008 8.3968 22.7328 15.4112 36.1472 20.992 17.7152 26.8288 34.3552 46.336 53.4016 68.7104 8.192 9.6256 16.6912 19.6608 26.112 31.0784 5.1712 12.9536 22.6816 65.8432-26.3168 89.7536-2.6624 1.1264-5.4784 2.1504-8.3456 3.1232 0.1536-0.9216 0.3072-1.8432 0.4096-2.7136 2.9184-28.0064-21.6064-54.3232-37.8368-71.7312l-1.7408-1.8944c-2.304-2.4576-5.376-5.5296-9.1136-9.216z m120.4224-184.2688c3.328 0.256 6.656 0.4608 9.8816 0.6144 0.512 0 0.9728 0 1.4848 0.0512 3.84 0.1536 7.5264 0.256 11.1104 0.3072h3.6352c2.7648 0 5.5296-0.0512 8.192-0.1024l3.84-0.1536c2.4576-0.1024 4.864-0.256 7.2192-0.4096 0.768-0.0512 1.5872-0.0512 2.3552-0.1024-0.2048 0.5632-0.4096 1.1776-0.6144 1.7408-0.1024 0.2048-0.2048 0.4608-0.256 0.6656-0.0512 0.1536-0.0512 0.3072-0.1024 0.4608-0.2048 0.6144-0.4096 1.2288-0.6656 1.8432-0.0512 0.2048-0.2048 0.3584-0.256 0.5632-0.5632 1.5872-1.1264 3.1744-1.6384 4.8128v0.0512c-0.3072 1.024-0.6656 2.048-0.9728 3.1232-0.4608 1.5872-0.9216 3.2256-1.3824 4.9152-0.1024 0.3072-0.1024 0.6144-0.2048 0.9216-0.1536 0.512-0.256 1.024-0.4096 1.536-0.0512 0.256-0.2048 0.4608-0.256 0.6656-0.1024 0.4096-0.1536 0.8192-0.256 1.2288-0.3072 1.2288-0.5632 2.4576-0.8192 3.7376-0.1536 0.6656-0.3072 1.28-0.4096 1.9456a247.20384 247.20384 0 0 0-39.4752-28.416z m19.2512 51.456c-50.8416 4.3008-87.0912-0.0512-113.3568-9.3184-0.768-0.4096-1.4848-0.768-2.304-1.0752-22.6816-8.448-39.7312-21.248-52.6336-39.5264 35.2256-5.4272 103.936-6.2464 168.2944 49.92z m-16.128 239.2576l-0.1536 1.8944c-0.1536 1.8944-0.4096 3.7376-0.6656 5.5808l-0.3072 2.048c-0.4096 2.3552-0.9216 4.7104-1.5872 6.9632-5.4272 19.2-17.8688 32.0512-38.0928 39.2192-3.3792 1.1776-6.656 2.2528-9.9328 3.1232-1.024 0.256-1.9968 0.4608-3.0208 0.7168-2.2016 0.5632-4.4032 1.0752-6.5536 1.4848-1.2288 0.256-2.3552 0.3584-3.584 0.5632-1.8944 0.3072-3.7888 0.6144-5.632 0.8192-1.28 0.1536-2.5088 0.1536-3.7888 0.256-1.6896 0.1024-3.4304 0.256-5.12 0.3072-1.28 0-2.56-0.0512-3.84-0.1024-1.5872-0.0512-3.1744-0.0512-4.7104-0.1536-1.28-0.1024-2.56-0.256-3.7888-0.4096-1.4848-0.1536-2.9696-0.3072-4.4032-0.5632-1.28-0.2048-2.5088-0.512-3.7376-0.768-1.3824-0.3072-2.7648-0.5632-4.1472-0.9216-1.2288-0.3072-2.4576-0.7168-3.6864-1.0752-1.3312-0.4096-2.6112-0.768-3.8912-1.2288-1.1776-0.4096-2.3552-0.9216-3.5328-1.3824-1.2288-0.512-2.5088-1.024-3.6864-1.536-1.1776-0.512-2.304-1.1264-3.4304-1.6896-1.1776-0.6144-2.3552-1.1776-3.5328-1.8432-1.1264-0.6144-2.2016-1.28-3.2768-1.9456-1.1264-0.7168-2.2528-1.3824-3.3792-2.0992-1.0752-0.7168-2.0992-1.4336-3.1232-2.2016-1.0752-0.768-2.2016-1.5872-3.2256-2.4064-0.9728-0.768-1.9968-1.5872-2.9696-2.4064-1.0752-0.8704-2.0992-1.7408-3.1232-2.6624-0.9216-0.8192-1.8432-1.6896-2.7648-2.56-1.024-0.9728-2.048-1.9456-3.0208-2.9696-0.8704-0.8704-1.7408-1.7408-2.56-2.6624-1.024-1.0752-1.9968-2.1504-2.9696-3.2768-0.768-0.8704-1.5872-1.792-2.3552-2.7136-0.4608-0.5632-0.9216-1.1264-1.3824-1.6384 34.304 11.1104 76.9024 4.9152 108.3904-8.2944 0.3072-0.1536 0.6144-0.256 0.9216-0.4096 24.0128-11.52 38.8608-27.648 47.36-45.2608 0.4096 2.304 0.8192 4.608 1.1776 6.8608 0.0512 0.512 0.1024 1.024 0.2048 1.536 0.256 2.0992 0.512 4.2496 0.6656 6.3488l0.1536 2.2016c0.1536 2.2016 0.256 4.352 0.256 6.5024 0 0.4096 0.0512 0.8192 0.0512 1.2288 0.0512 2.56-0.0512 5.0688-0.2048 7.5264z m-19.968-153.088c-5.4784-6.5536-10.7008-12.6464-15.5136-18.3296-8.1408-9.5744-15.616-18.3296-22.784-27.1872 11.8272 1.28 24.2688 1.9968 37.4784 1.9968 7.6288 0 15.5136-0.3072 23.6032-0.7168-8.6016 12.3392-16.896 27.1872-22.784 44.2368z m57.3952-22.1184c13.6192 80.7936 52.6336 109.2608 78.848 119.2448-6.7072 31.1296-12.8 62.6688-16.9984 90.5728-9.8304-12.4416-18.4832-24.6272-22.9376-31.1808a20.44416 20.44416 0 0 0-28.416-5.4784c-3.4304 2.304-5.888 5.4784-7.3728 9.0624v-0.0512c0.3584-3.5328 0.5632-7.1168 0.6656-10.752v-0.1024c0.8704-36.3008-11.4176-75.3152-28.5696-105.3696 1.536-26.5728 12.9024-49.2032 24.7808-65.9456z m197.6832 401.3568c-145.92 0-206.1312-125.1328-219.7504-159.4368 9.8304-10.8544 17.0496-23.9616 21.2992-39.0656 0.9728-3.4816 1.792-7.0144 2.4576-10.6496 0.3072 3.2768 1.3312 6.5024 3.328 9.4208 3.7888 5.5808 37.376 54.6304 64.0512 75.4176 5.5808 14.1312 13.7216 27.392 24.1664 39.1168 26.0608 29.2352 63.1808 45.9776 101.8368 45.9776 41.1136 0 77.568-16.0256 102.6048-45.2096 10.752-12.544 18.944-26.9312 24.3712-42.3424 26.4192-18.6368 55.6032-61.2864 61.7472-70.5024 1.4848-2.2528 2.4576-4.7104 2.9696-7.2192 0.4608 1.9968 0.8192 4.0448 1.3824 5.9904 4.5568 16.128 12.3904 29.952 23.2448 41.216-16.1792 39.1168-76.0832 157.2864-213.7088 157.2864z m186.5728-218.9312c-1.536-2.6112-3.584-4.9664-6.2464-6.7072a20.46976 20.46976 0 0 0-28.416 5.6832 434.3808 434.3808 0 0 1-21.248 28.8768c-0.1024-0.768-0.1536-1.536-0.3072-2.304-2.7136-17.7664-8.7552-51.3536-16.2816-88.6272 25.856-9.728 64.3072-37.4272 78.5408-115.8144 12.032 17.8176 22.8864 38.8096 24.576 57.856-20.3776 33.5872-34.816 79.872-30.6176 121.0368z m7.9872-269.4656c-0.0512-0.2048-0.0512-0.4096-0.1024-0.6144-0.0512-0.256-0.0512-0.4608-0.1024-0.7168-0.0512-0.256-0.1536-0.5632-0.2048-0.8192-0.3072-1.4848-0.6656-2.9696-1.024-4.4544-0.6144-2.6112-1.3312-5.2736-2.048-7.8336-0.4608-1.5872-0.9728-3.1744-1.4848-4.7104-0.7168-2.1504-1.4336-4.2496-2.2528-6.3488-0.3584-0.9216-0.6144-1.8432-0.9728-2.7136 13.6704 1.024 29.696 1.1264 47.7696-0.2048a243.78368 243.78368 0 0 0-39.5776 28.416z m188.672-27.136c-13.7728 19.5584-32.3072 32.9216-57.2416 41.3184-0.768 0.256-1.4848 0.6144-2.2016 0.9728-25.856 8.2432-60.8768 11.8784-109.0048 7.8336 64.8192-56.8832 133.3248-55.808 168.448-50.1248z m-131.4304 92.7232c11.5712 0 22.6304-0.512 33.1264-1.4848-7.0656 8.704-14.3872 17.3056-22.3744 26.7264-4.4544 5.2224-9.1648 10.752-14.1312 16.6912-6.4512-15.616-15.1552-30.3104-23.8592-42.9056 9.3184 0.6144 18.4832 0.9728 27.2384 0.9728z m134.2464 218.4192c-0.4096 0.4608-0.768 0.9728-1.1776 1.4336-0.8704 1.024-1.792 2.0992-2.6624 3.072-0.9216 1.024-1.792 1.9968-2.7136 2.9696-0.9216 0.9728-1.792 1.8944-2.7648 2.816-0.9728 0.9728-1.9456 1.8944-2.9184 2.816-0.9216 0.8704-1.8944 1.7408-2.816 2.6112-1.024 0.9216-2.048 1.792-3.1232 2.6624-0.9728 0.8192-1.9456 1.5872-2.9184 2.3552-1.0752 0.8192-2.2016 1.6384-3.2768 2.4576l-3.072 2.1504c-1.1264 0.768-2.304 1.4848-3.4816 2.2016-1.0752 0.6656-2.0992 1.28-3.1744 1.8944-1.1776 0.6656-2.4064 1.28-3.6352 1.8944-1.1264 0.5632-2.2016 1.1264-3.328 1.6384-1.2288 0.5632-2.5088 1.0752-3.7888 1.5872-1.1264 0.4608-2.304 0.9216-3.4816 1.3824-1.3312 0.4608-2.6624 0.8704-3.9936 1.28-1.1776 0.3584-2.3552 0.768-3.584 1.0752-1.3824 0.3584-2.7648 0.6144-4.1984 0.9216-1.2288 0.256-2.4576 0.5632-3.6864 0.768-1.4336 0.256-2.9696 0.4096-4.4544 0.5632-1.2288 0.1536-2.5088 0.3072-3.7888 0.4096-1.536 0.1024-3.1232 0.1024-4.7104 0.1536-1.28 0.0512-2.5088 0.1024-3.84 0.1024-1.6384-0.0512-3.3792-0.1536-5.0688-0.3072-1.28-0.1024-2.5088-0.1024-3.84-0.256-1.792-0.2048-3.6864-0.512-5.5296-0.8192-1.2288-0.2048-2.4064-0.3072-3.6864-0.5632-2.0992-0.4096-4.3008-0.9728-6.4512-1.4848-1.024-0.256-2.048-0.4608-3.1232-0.7168-3.2256-0.8704-6.5536-1.9456-9.9328-3.1232-10.1376-3.584-18.2784-8.6016-24.6272-15.104-6.2976-6.5024-10.8032-14.5408-13.5168-24.1152-0.6656-2.2528-1.1264-4.608-1.5872-6.9632l-0.3072-2.048c-0.3072-1.8432-0.512-3.6864-0.6656-5.5808-0.0512-0.6144-0.1536-1.2288-0.1536-1.8432-0.1536-2.4576-0.256-4.9664-0.256-7.4752 0-0.4096 0.0512-0.8192 0.0512-1.2288 0.0512-2.1504 0.1024-4.3008 0.256-6.5024l0.1536-2.2016c0.2048-2.0992 0.4096-4.1984 0.6656-6.2976 0.0512-0.512 0.1024-1.024 0.2048-1.536 0.3072-2.304 0.7168-4.608 1.1776-6.8608 8.4992 17.664 23.3472 33.7408 47.36 45.2608 0.3072 0.1536 0.6144 0.3072 0.9216 0.4096 31.5904 13.1072 74.1888 19.3024 108.544 8.1408z m63.8976-309.7088c-13.5168 96.8704-73.6768 156.2112-99.328 181.504-3.7376 3.6864-6.8096 6.7072-9.0624 9.1648l-1.7408 1.8944c-16.2304 17.408-40.8064 43.7248-37.8368 71.7312 0.1024 0.8704 0.256 1.792 0.4096 2.7136-2.8672-0.9728-5.6832-1.9968-8.3456-3.1232-48.9984-23.9104-31.488-76.8-26.3168-89.7024 9.3696-11.4176 17.8688-21.4528 26.0608-31.0784 18.6368-21.8624 34.8672-40.96 52.0704-66.7648 19.2-7.2704 35.7376-17.2544 49.7152-29.952 0.6144-0.5632 1.1776-1.1264 1.7408-1.6896 2.6112-2.4576 5.12-4.9664 7.5264-7.6288 0.9728-1.0752 1.8944-2.1504 2.816-3.2256 1.9968-2.304 3.8912-4.7104 5.7344-7.1168 0.9728-1.28 1.9456-2.56 2.8672-3.8912 1.792-2.56 3.5328-5.2224 5.2224-7.936 0.768-1.2288 1.5872-2.4576 2.3552-3.7376 2.3552-4.0448 4.608-8.1408 6.7072-12.4928 4.2496-8.7552 1.6896-19.3024-6.0416-25.1904-25.6512-19.5584-71.68-34.304-109.2608-31.1808-6.912 0.5632-13.568 1.6896-19.712 3.5328-4.4032 1.0752-8.704 2.0992-12.9536 3.0208-1.28 0.256-2.4576 0.512-3.7376 0.768a314.112 314.112 0 0 1-13.2608 2.5088c-2.3552 0.4096-4.7104 0.8192-7.0144 1.1776-1.6896 0.256-3.328 0.4608-4.9664 0.7168-2.0992 0.3072-4.1984 0.5632-6.1952 0.8192-1.6896 0.2048-3.328 0.4096-4.9664 0.5632-1.9456 0.2048-3.84 0.4096-5.6832 0.5632-1.6384 0.1536-3.2256 0.256-4.8128 0.4096-1.792 0.1536-3.584 0.256-5.3248 0.3584-1.536 0.1024-3.072 0.1536-4.608 0.256-1.6896 0.0512-3.328 0.1536-4.9664 0.2048-1.4848 0.0512-2.9184 0.1024-4.352 0.1024h-4.7104c-1.3824 0-2.7136 0-4.0448-0.0512l-4.5056-0.1536c-1.2288-0.0512-2.4576-0.0512-3.6352-0.1536-1.536-0.0512-3.0208-0.2048-4.5568-0.256-1.024-0.0512-2.0992-0.1024-3.072-0.2048-1.8432-0.1536-3.5328-0.3072-5.2736-0.512l-1.792-0.1536c-2.2528-0.256-4.4032-0.512-6.4512-0.8192l-2.0992-0.3072c-1.3312-0.2048-2.6624-0.4096-3.8912-0.6144-0.768-0.1536-1.536-0.256-2.2528-0.4096-1.0752-0.2048-2.1504-0.4096-3.1744-0.6144l-2.1504-0.4608c-0.6656-0.1536-1.3312-0.3072-1.9456-0.4608-5.9392-7.168-12.4928-13.9776-19.6608-20.4288 75.776-41.472 140.8-64.6656 188.9792-67.2256 36.7616 0.1536 100.864 15.9744 123.0848 118.4768-0.3584 5.6832-0.768 11.3664-1.5872 17.0496z" fill="#d81e06" p-id="1875"></path><path d="M466.4832 595.5072c-6.5024-1.5872-13.312-0.256-18.688 3.6864a22.2208 22.2208 0 0 0-9.1136 16.5376c-1.9456 28.672 6.7584 43.8784 31.0272 54.272 6.0928 2.6112 10.2912 7.68 12.4928 23.8592-3.2256-0.6144-6.3488-1.28-9.3184-1.9456-12.3904-2.7136-33.1776-7.3216-39.8336 12.6976-2.6624 8.0384-1.0752 16.9984 4.4032 24.576 11.6224 16.128 38.2464 25.0368 75.008 25.0368 43.2128 0 68.608-16.896 77.1584-31.3344 4.6592-7.8336 5.2224-16.128 1.5872-22.7328-7.424-13.6192-21.5552-11.1104-32.8704-9.1136-5.2736 0.9216-11.9808 2.0992-20.7872 3.072 2.816-9.6256 9.728-16.9472 21.4016-22.9376 24.2176-12.4928 32.2048-28.6208 27.5456-55.7568-1.024-5.9392-4.352-11.1616-9.3184-14.592-4.9664-3.4304-11.264-4.7616-17.2544-3.6352-43.8272 8.3456-79.9744 1.5872-93.44-1.6896z m35.4816 127.744c1.8944-1.024 3.6352-2.304 5.2224-3.84 0.9216-0.9216 1.7408-1.8944 2.5088-2.9184a22.71744 22.71744 0 0 0 8.3456 6.9632c-5.2736 0.2048-11.1104 0.1024-16.0768-0.2048z m55.2448-94.4128c0.2048 7.3728-2.816 10.1888-12.288 15.0528-16.7424 8.6016-28.2112 20.1728-34.304 34.56-3.84-15.7184-11.6736-29.3376-28.7744-36.6592-7.8336-3.328-11.776-5.0688-12.5952-14.2848 19.712 3.84 50.944 7.1168 87.9616 1.3312z" fill="#d81e06" p-id="1876"></path></svg>